<?xml version="1.0" encoding="utf-8"?>
<!-- Generator: Adobe Illustrator 19.0.0, SVG Export Plug-In . SVG Version: 6.00 Build 0)  -->
<svg version="1.1" id="Capa_1" xmlns="http://www.w3.org/2000/svg" xmlns:xlink="http://www.w3.org/1999/xlink" x="0px" y="0px"
	 viewBox="-49 141 512 512" style="enable-background:new -49 141 512 512;" xml:space="preserve">
<style type="text/css">
	.st0{fill:#E6E7E8;stroke:#ECF0F1;stroke-miterlimit:10;}
	.st1{fill:#424242;}
</style>
<g>
	<circle class="st0" cx="207" cy="397" r="251.7"/>
	<polygon class="st1" points="270.9,475.1 154.6,475.1 114.7,371 210.2,301.5 305.6,371 	"/>
	<g>
		<path class="st1" d="M162,467.3c-4.3-2.2-9.5-0.4-11.6,3.9l-3.9,7.8c-2.1,4.3-0.4,9.5,3.9,11.6c1.2,0.6,2.6,0.9,3.9,0.9
			c3.2,0,6.2-1.8,7.8-4.8l3.9-7.8C168,474.7,166.3,469.5,162,467.3z"/>
		<path class="st1" d="M146.4,498.4c-4.3-2.2-9.5-0.4-11.6,3.9l-3.9,7.8c-2.1,4.3-0.4,9.5,3.9,11.6c1.2,0.6,2.6,0.9,3.9,0.9
			c3.2,0,6.2-1.8,7.8-4.8l3.9-7.8C152.5,505.7,150.7,500.5,146.4,498.4z"/>
		<path class="st1" d="M282.5,479l-3.9-7.8c-2.2-4.3-7.4-6-11.6-3.9c-4.3,2.1-6,7.4-3.9,11.6l3.9,7.8c1.5,3,4.6,4.8,7.8,4.8
			c1.3,0,2.6-0.3,3.9-0.9C282.9,488.5,284.7,483.3,282.5,479z"/>
		<path class="st1" d="M294.2,502.3c-2.1-4.3-7.4-6-11.6-3.9c-4.3,2.1-6,7.4-3.9,11.6l3.9,7.8c1.5,3,4.6,4.8,7.8,4.8
			c1.3,0,2.6-0.3,3.9-0.9c4.3-2.1,6-7.4,3.9-11.6L294.2,502.3z"/>
		<path class="st1" d="M97.2,354.1l-8-3.4c-4.4-1.9-9.5,0.1-11.4,4.6c-1.9,4.4,0.2,9.5,4.5,11.4l8,3.4c1.1,0.5,2.3,0.7,3.4,0.7
			c3.4,0,6.6-2,8-5.3C103.7,361,101.6,355.9,97.2,354.1z"/>
		<path class="st1" d="M65.3,340.4l-8-3.4c-4.4-1.9-9.5,0.2-11.4,4.6c-1.9,4.4,0.2,9.5,4.5,11.4l8,3.4c1.1,0.5,2.3,0.7,3.4,0.7
			c3.4,0,6.6-2,8-5.3C71.8,347.4,69.7,342.3,65.3,340.4z"/>
		<path class="st1" d="M210.2,232.1c-4.8,0-8.7,3.9-8.7,8.7v8.7c0,4.8,3.9,8.7,8.7,8.7c4.8,0,8.7-3.9,8.7-8.7v-8.7
			C218.8,236,214.9,232.1,210.2,232.1z"/>
		<path class="st1" d="M210.2,266.8c-4.8,0-8.7,3.9-8.7,8.7v8.7c0,4.8,3.9,8.7,8.7,8.7c4.8,0,8.7-3.9,8.7-8.7v-8.7
			C218.8,270.7,214.9,266.8,210.2,266.8z"/>
		<path class="st1" d="M331,350.6l-8,3.4c-4.4,1.9-6.4,7-4.5,11.4c1.4,3.3,4.6,5.3,8,5.3c1.1,0,2.3-0.2,3.4-0.7l8-3.4
			c4.4-1.9,6.4-7,4.5-11.4C340.5,350.8,335.4,348.7,331,350.6z"/>
		<path class="st1" d="M374.3,341.5c-1.9-4.4-7-6.4-11.4-4.6l-8,3.4c-4.4,1.9-6.4,7-4.5,11.4c1.4,3.3,4.6,5.3,8,5.3
			c1.1,0,2.3-0.2,3.4-0.7l8-3.4C374.2,351,376.2,345.9,374.3,341.5z"/>
	</g>
	<path class="st1" d="M144.9,153.9l-21.7,31.2l86.9,55.7l78.1-59.7L268.6,153c-19.2-4.8-39.3-7.5-60-7.6
		C186.6,145.5,165.2,148.5,144.9,153.9z"/>
	<path class="st1" d="M380.5,249.5l-14.1,95.5l86.8,52.7l5.2-10c-1.8-49.6-18-95.6-44.5-133.8L380.5,249.5z"/>
	<path class="st1" d="M390.7,568.9l1.7-41.7l-95.5,0l-41.6,92l36,14.9C329.6,620.5,363.5,598,390.7,568.9z"/>
	<path class="st1" d="M132,527.2l-104.1,0l1.9,45.2c27,27.8,60.4,49.3,97.8,62.3l37.4-15.5L132,527.2z"/>
	<path class="st1" d="M53.9,344.9l-14.1-95.5l-36.9,4.8C-22.5,291-38.3,334.8-41,382.1l8.1,15.6L53.9,344.9z"/>
</g>
</svg>
